HIERARCHY
ROOT mixamorig:Hips
{
	OFFSET 0.000000 201.639420 0.000000
	CHANNELS 6 Xposition Yposition Zposition Xrotation Yrotation Zrotation
	JOINT mixamorig:Spine
	{
		OFFSET 0.006200 19.524994 -2.481800
		CHANNELS 3 Xrotation Yrotation Zrotation
		JOINT mixamorig:Spine1
		{
			OFFSET -0.000900 22.835007 -2.825400
			CHANNELS 3 Xrotation Yrotation Zrotation
			JOINT mixamorig:Spine2
			{
				OFFSET -0.020600 26.552490 -3.193300
				CHANNELS 3 Xrotation Yrotation Zrotation
				JOINT mixamorig:Neck
				{
					OFFSET -0.060000 30.701813 1.352200
					CHANNELS 3 Xrotation Yrotation Zrotation
					JOINT mixamorig:Head
					{
						OFFSET -0.087200 22.547607 3.670900
						CHANNELS 3 Xrotation Yrotation Zrotation
						JOINT mixamorig:HeadTop_End
						{
							OFFSET -0.830600 40.355194 7.893500
							CHANNELS 3 Xrotation Yrotation Zrotation
							End Site
							{
								OFFSET 0.000000 30.592346 0.000000
							}
						}
						JOINT mixamorig:RightEye
						{
							OFFSET -6.302100 18.118591 16.197100
							CHANNELS 3 Xrotation Yrotation Zrotation
							End Site
							{
								OFFSET 0.000000 30.592346 0.000000
							}
						}
						JOINT mixamorig:LeftEye
						{
							OFFSET 6.741500 18.382690 16.401899
							CHANNELS 3 Xrotation Yrotation Zrotation
							End Site
							{
								OFFSET 0.000000 30.592346 0.000000
							}
						}
					}
				}
				JOINT mixamorig:LeftShoulder
				{
					OFFSET 11.924900 18.230499 1.425400
					CHANNELS 3 Xrotation Yrotation Zrotation
					JOINT mixamorig:LeftArm
					{
						OFFSET 25.435989 -0.697632 -5.229300
						CHANNELS 3 Xrotation Yrotation Zrotation
						JOINT mixamorig:LeftForeArm
						{
							OFFSET 54.684776 0.000000 0.000000
							CHANNELS 3 Xrotation Yrotation Zrotation
							JOINT mixamorig:LeftHand
							{
								OFFSET 55.098175 0.000000 0.000000
								CHANNELS 3 Xrotation Yrotation Zrotation
								JOINT mixamorig:LeftHandMiddle1
								{
									OFFSET 23.369751 0.000000 0.000000
									CHANNELS 3 Xrotation Yrotation Zrotation
									JOINT mixamorig:LeftHandMiddle2
									{
										OFFSET 6.378677 0.000000 0.000000
										CHANNELS 3 Xrotation Yrotation Zrotation
										JOINT mixamorig:LeftHandMiddle3
										{
											OFFSET 6.148331 0.000000 0.000000
											CHANNELS 3 Xrotation Yrotation Zrotation
											JOINT mixamorig:LeftHandMiddle4
											{
												OFFSET 6.582504 0.000000 0.000000
												CHANNELS 3 Xrotation Yrotation Zrotation
												End Site
												{
													OFFSET -1.168900 6.395691 1.028606
												}
											}
										}
									}
								}
								JOINT mixamorig:LeftHandThumb1
								{
									OFFSET 7.235672 -3.848206 5.434273
									CHANNELS 3 Xrotation Yrotation Zrotation
									JOINT mixamorig:LeftHandThumb2
									{
										OFFSET 6.568451 -3.792297 3.792300
										CHANNELS 3 Xrotation Yrotation Zrotation
										JOINT mixamorig:LeftHandThumb3
										{
											OFFSET 6.063080 -3.500519 3.500518
											CHANNELS 3 Xrotation Yrotation Zrotation
											JOINT mixamorig:LeftHandThumb4
											{
												OFFSET 4.793182 -2.767334 2.767349
												CHANNELS 3 Xrotation Yrotation Zrotation
												End Site
												{
													OFFSET 0.101639 6.054260 1.275483
												}
											}
										}
									}
								}
								JOINT mixamorig:LeftHandIndex1
								{
									OFFSET 23.101074 -0.309540 4.992809
									CHANNELS 3 Xrotation Yrotation Zrotation
									JOINT mixamorig:LeftHandIndex2
									{
										OFFSET 6.226883 0.000000 0.000000
										CHANNELS 3 Xrotation Yrotation Zrotation
										JOINT mixamorig:LeftHandIndex3
										{
											OFFSET 6.094330 0.000000 0.000000
											CHANNELS 3 Xrotation Yrotation Zrotation
											JOINT mixamorig:LeftHandIndex4
											{
												OFFSET 5.482605 0.000000 0.000000
												CHANNELS 3 Xrotation Yrotation Zrotation
												End Site
												{
													OFFSET -1.427902 5.233032 0.797164
												}
											}
										}
									}
								}
								JOINT mixamorig:LeftHandRing1
								{
									OFFSET 22.299240 0.021149 -3.964172
									CHANNELS 3 Xrotation Yrotation Zrotation
									JOINT mixamorig:LeftHandRing2
									{
										OFFSET 6.321869 0.000000 0.000000
										CHANNELS 3 Xrotation Yrotation Zrotation
										JOINT mixamorig:LeftHandRing3
										{
											OFFSET 5.899796 0.000000 0.000000
											CHANNELS 3 Xrotation Yrotation Zrotation
											JOINT mixamorig:LeftHandRing4
											{
												OFFSET 6.517899 0.000000 0.000000
												CHANNELS 3 Xrotation Yrotation Zrotation
												End Site
												{
													OFFSET -1.637299 6.232208 0.980890
												}
											}
										}
									}
								}
								JOINT mixamorig:LeftHandPinky1
								{
									OFFSET 20.463791 -0.302338 -8.562233
									CHANNELS 3 Xrotation Yrotation Zrotation
									JOINT mixamorig:LeftHandPinky2
									{
										OFFSET 6.908646 0.000000 0.000000
										CHANNELS 3 Xrotation Yrotation Zrotation
										JOINT mixamorig:LeftHandPinky3
										{
											OFFSET 4.622849 0.000000 0.000000
											CHANNELS 3 Xrotation Yrotation Zrotation
											JOINT mixamorig:LeftHandPinky4
											{
												OFFSET 5.216080 0.000000 0.000000
												CHANNELS 3 Xrotation Yrotation Zrotation
												End Site
												{
													OFFSET -0.606308 5.116241 0.814926
												}
											}
										}
									}
								}
							}
						}
					}
				}
				JOINT mixamorig:RightShoulder
				{
					OFFSET -12.001300 18.284088 1.348900
					CHANNELS 3 Xrotation Yrotation Zrotation
					JOINT mixamorig:RightArm
					{
						OFFSET -25.308500 -0.751312 -5.164599
						CHANNELS 3 Xrotation Yrotation Zrotation
						JOINT mixamorig:RightForeArm
						{
							OFFSET -54.684429 0.000000 0.000000
							CHANNELS 3 Xrotation Yrotation Zrotation
							JOINT mixamorig:RightHand
							{
								OFFSET -55.150291 0.000000 0.000000
								CHANNELS 3 Xrotation Yrotation Zrotation
								JOINT mixamorig:RightHandMiddle1
								{
									OFFSET -23.317566 0.000000 0.000000
									CHANNELS 3 Xrotation Yrotation Zrotation
									JOINT mixamorig:RightHandMiddle2
									{
										OFFSET -6.378403 0.000000 0.000000
										CHANNELS 3 Xrotation Yrotation Zrotation
										JOINT mixamorig:RightHandMiddle3
										{
											OFFSET -6.148193 0.000000 0.000000
											CHANNELS 3 Xrotation Yrotation Zrotation
											JOINT mixamorig:RightHandMiddle4
											{
												OFFSET -6.583389 0.000000 0.000000
												CHANNELS 3 Xrotation Yrotation Zrotation
												End Site
												{
													OFFSET 1.171692 6.395905 1.029786
												}
											}
										}
									}
								}
								JOINT mixamorig:RightHandThumb1
								{
									OFFSET -7.190521 -3.860474 5.435846
									CHANNELS 3 Xrotation Yrotation Zrotation
									JOINT mixamorig:RightHandThumb2
									{
										OFFSET -6.567429 -3.791718 3.791708
										CHANNELS 3 Xrotation Yrotation Zrotation
										JOINT mixamorig:RightHandThumb3
										{
											OFFSET -6.062469 -3.500153 3.500166
											CHANNELS 3 Xrotation Yrotation Zrotation
											JOINT mixamorig:RightHandThumb4
											{
												OFFSET -4.792618 -2.767029 2.767022
												CHANNELS 3 Xrotation Yrotation Zrotation
												End Site
												{
													OFFSET -0.100327 6.053253 1.276754
												}
											}
										}
									}
								}
								JOINT mixamorig:RightHandIndex1
								{
									OFFSET -23.048981 -0.310791 4.992554
									CHANNELS 3 Xrotation Yrotation Zrotation
									JOINT mixamorig:RightHandIndex2
									{
										OFFSET -6.227539 0.000000 0.000000
										CHANNELS 3 Xrotation Yrotation Zrotation
										JOINT mixamorig:RightHandIndex3
										{
											OFFSET -6.095047 0.000000 0.000000
											CHANNELS 3 Xrotation Yrotation Zrotation
											JOINT mixamorig:RightHandIndex4
											{
												OFFSET -5.484772 0.000000 0.000000
												CHANNELS 3 Xrotation Yrotation Zrotation
												End Site
												{
													OFFSET 1.420593 5.237305 0.797056
												}
											}
										}
									}
								}
								JOINT mixamorig:RightHandRing1
								{
									OFFSET -22.246323 0.020569 -3.963762
									CHANNELS 3 Xrotation Yrotation Zrotation
									JOINT mixamorig:RightHandRing2
									{
										OFFSET -6.322128 0.000000 0.000000
										CHANNELS 3 Xrotation Yrotation Zrotation
										JOINT mixamorig:RightHandRing3
										{
											OFFSET -5.900024 0.000000 0.000000
											CHANNELS 3 Xrotation Yrotation Zrotation
											JOINT mixamorig:RightHandRing4
											{
												OFFSET -6.518356 0.000000 0.000000
												CHANNELS 3 Xrotation Yrotation Zrotation
												End Site
												{
													OFFSET 1.636398 6.232697 0.982186
												}
											}
										}
									}
								}
								JOINT mixamorig:RightHandPinky1
								{
									OFFSET -20.411011 -0.303314 -8.561701
									CHANNELS 3 Xrotation Yrotation Zrotation
									JOINT mixamorig:RightHandPinky2
									{
										OFFSET -6.907349 0.000000 0.000000
										CHANNELS 3 Xrotation Yrotation Zrotation
										JOINT mixamorig:RightHandPinky3
										{
											OFFSET -4.623840 0.000000 0.000000
											CHANNELS 3 Xrotation Yrotation Zrotation
											JOINT mixamorig:RightHandPinky4
											{
												OFFSET -5.218353 0.000000 0.000000
												CHANNELS 3 Xrotation Yrotation Zrotation
												End Site
												{
													OFFSET 0.602097 5.118835 0.816273
												}
											}
										}
									}
								}
							}
						}
					}
				}
			}
		}
	}
	JOINT mixamorig:LeftUpLeg
	{
		OFFSET 18.168400 -13.561905 -0.039000
		CHANNELS 3 Xrotation Yrotation Zrotation
		JOINT mixamorig:LeftLeg
		{
			OFFSET 0.577358 -80.825211 -3.695000
			CHANNELS 3 Xrotation Yrotation Zrotation
			JOINT mixamorig:LeftFoot
			{
				OFFSET -0.577356 -83.370262 -6.520700
				CHANNELS 3 Xrotation Yrotation Zrotation
				JOINT mixamorig:LeftToeBase
				{
					OFFSET 0.750401 -20.798306 25.135401
					CHANNELS 3 Xrotation Yrotation Zrotation
					JOINT mixamorig:LeftToe_End
					{
						OFFSET -0.000500 0.001200 19.917799
						CHANNELS 3 Xrotation Yrotation Zrotation
						End Site
						{
							OFFSET 0.000000 19.917805 0.000000
						}
					}
				}
			}
		}
	}
	JOINT mixamorig:RightUpLeg
	{
		OFFSET -18.162500 -13.585098 -0.041000
		CHANNELS 3 Xrotation Yrotation Zrotation
		JOINT mixamorig:RightLeg
		{
			OFFSET -0.595024 -80.945297 -3.631900
			CHANNELS 3 Xrotation Yrotation Zrotation
			JOINT mixamorig:RightFoot
			{
				OFFSET 0.595024 -83.218193 -6.561200
				CHANNELS 3 Xrotation Yrotation Zrotation
				JOINT mixamorig:RightToeBase
				{
					OFFSET -0.753601 -20.807106 25.115000
					CHANNELS 3 Xrotation Yrotation Zrotation
					JOINT mixamorig:RightToe_End
					{
						OFFSET 0.000299 0.001700 19.918200
						CHANNELS 3 Xrotation Yrotation Zrotation
						End Site
						{
							OFFSET 0.000000 19.918203 0.000000
						}
					}
				}
			}
		}
	}
}
MOTION
Frames: 4
Frame Time: 0.033333
-0.029924 172.260437 -0.783895 -8.777621 -0.211845 0.949857 46.213685 1.910324 5.948379 4.954246 0.142302 -2.566087 4.979902 -0.111961 -2.539750 8.225676 -2.663180 -0.151169 -32.392633 8.103657 24.042348 0.000002 -0.000000 -0.000001 0.000002 -0.000000 -0.000001 0.000002 -0.000000 -0.000001 -35.976737 -46.952858 -20.483659 -67.129531 -46.142781 -38.235532 -0.000004 -21.482123 0.000013 -126.062916 16.464647 14.549242 0.405916 5.507052 -52.453151 3.387140 5.308615 -65.057449 0.282018 1.797452 -17.832381 -0.000001 0.000001 0.000004 4.709207 9.560386 3.111986 19.473180 -1.474877 7.636916 -4.536178 -9.613109 1.492972 0.000004 -0.000001 -0.000003 -0.212821 3.933710 -36.747125 2.942138 5.078901 -60.144583 0.513676 2.400825 -24.150526 -0.000002 0.000000 -0.000002 -0.074381 5.736807 -61.061427 4.055030 5.569530 -72.094887 0.582671 2.548962 -25.748012 -0.000002 0.000001 0.000001 -6.565567 4.545149 -72.425229 3.299616 5.267207 -64.107828 0.175343 1.424016 -14.038888 0.000003 0.000001 -0.000002 -41.034421 5.199076 -3.028397 -18.718448 27.167658 63.485065 0.000007 116.046881 -0.000013 -38.740604 -24.379284 -43.891110 3.413061 -7.186244 51.650246 6.296820 -4.359606 110.634673 0.248716 -1.503056 18.790264 0.000000 -0.000000 -0.000001 8.377127 -4.904121 11.021990 21.620216 -18.183895 -18.379214 -0.702953 -49.821206 -32.535196 0.000001 -0.000001 -0.000002 -0.920027 1.683582 12.434964 0.748118 -2.533444 32.898282 0.615628 -2.316065 29.767829 0.000002 -0.000000 0.000001 -3.349042 -2.600444 57.010571 5.440884 -4.590891 99.698147 1.689390 -3.590685 50.382231 -0.000001 0.000001 0.000001 -3.996447 -3.303922 64.593837 4.058839 -4.618661 82.610544 2.315535 -4.026788 59.787214 0.000001 -0.000000 0.000003 -51.067545 2.967090 11.331675 64.443846 10.040707 0.858455 -3.584621 1.144591 -9.655529 15.528025 0.000018 -0.000001 0.000000 0.000002 -0.000000 -45.046887 -4.366928 3.987229 62.835193 -9.708597 -2.039580 -4.273330 -8.051355 -8.887726 -5.623670 -0.003693 0.586576 -0.000000 -0.000002 -0.000000 
2.418347 171.513702 -18.359304 -10.553017 -2.562333 -0.698818 47.798108 2.653447 6.527779 5.287831 0.387573 -2.153608 5.343786 0.147351 -2.136330 5.626136 -2.808190 -1.110358 -32.050103 6.816716 20.464691 -0.000002 -0.000000 -0.000000 -0.000002 -0.000000 -0.000000 -0.000002 -0.000000 -0.000000 -32.459415 -48.726115 -14.757901 -68.801937 -41.466205 -35.139974 -0.000019 -24.881312 -0.000019 -127.026861 15.181079 15.635652 0.970203 5.939556 -52.458325 3.417885 5.322768 -65.389479 0.438608 2.225955 -22.290708 -0.000000 -0.000002 0.000005 3.907596 6.566274 6.493789 20.663346 4.223548 3.998548 -5.217783 -10.738715 2.729286 0.000004 -0.000001 0.000002 -0.048243 3.995027 -34.179431 2.630412 4.887478 -56.557183 0.496159 2.361408 -23.728980 -0.000000 -0.000000 0.000000 -0.119044 5.687596 -60.724473 3.773580 5.471055 -69.169797 0.637389 2.659324 -26.952288 -0.000004 -0.000002 -0.000002 -5.736406 4.971372 -73.259899 3.021281 5.123343 -61.034871 0.204267 1.535009 -15.158763 0.000003 0.000002 -0.000002 -37.335631 5.640126 -2.300445 -26.381128 28.305387 63.391566 0.000058 113.632662 -0.000070 -38.974111 -25.625335 -41.927960 3.251365 -7.012942 52.846789 6.200063 -4.394710 109.366785 0.437723 -1.972949 25.015964 0.000000 -0.000000 -0.000000 6.731212 -4.556758 9.485117 21.892199 -20.506750 -16.077584 -0.351848 -47.188411 -30.774835 -0.000002 0.000001 0.000003 -0.633223 0.584434 11.685596 0.617321 -2.318980 29.809326 0.488563 -2.078344 26.454158 -0.000001 -0.000000 0.000002 -3.046296 -2.989350 58.483672 5.350590 -4.605384 98.572013 1.893922 -3.750257 53.576120 -0.000001 -0.000001 -0.000001 -3.623481 -3.595858 65.428021 3.765817 -4.571253 78.954098 2.200607 -3.957787 58.136460 0.000001 0.000000 -0.000002 -51.794731 6.150948 12.172639 67.521454 8.461544 4.593669 -0.308659 -0.680762 -7.702035 11.346274 -0.000009 0.000000 -0.000000 0.000000 0.000000 -45.496682 -4.772026 4.315557 54.231524 -8.009905 -0.655242 6.434526 -7.199644 -11.456013 -4.987799 -0.025986 1.556469 -0.000000 -0.000002 -0.000000 
6.121960 172.563339 -36.006596 -12.526077 -4.512844 -3.406830 49.366609 3.100939 8.683570 5.632341 0.472959 -1.372052 5.753871 0.277859 -1.360910 4.334508 -2.822065 -1.648684 -30.160425 5.983998 17.704441 0.000001 0.000000 0.000001 0.000001 0.000000 0.000001 0.000001 0.000000 0.000001 -29.662600 -52.221410 -9.091699 -70.009535 -32.824158 -28.504316 0.000001 -28.069332 -0.000011 -126.934845 15.531691 16.433816 2.471002 7.087182 -55.669686 3.432325 5.329311 -65.544975 0.627044 2.638925 -26.728740 0.000001 0.000000 0.000004 3.578781 7.198955 6.413457 22.680461 10.923258 -0.126835 -5.882100 -11.671893 3.956101 -0.000002 -0.000002 0.000000 0.926225 5.442683 -35.561510 2.327195 4.673855 -52.920073 0.482132 2.329246 -23.385980 -0.000004 -0.000001 0.000000 0.510998 6.183427 -63.146308 3.496019 5.357692 -66.228834 0.699143 2.777311 -28.254437 -0.000000 0.000000 -0.000000 -4.644564 5.840563 -76.417680 2.739380 4.957475 -57.826909 0.239287 1.658819 -16.415431 -0.000002 -0.000002 0.000002 -33.476827 5.756263 -1.095903 -37.162185 32.722036 65.844362 -0.000056 106.308281 0.000050 -37.634892 -25.568840 -37.704885 3.060342 -6.814353 54.708128 6.093430 -4.430661 107.981042 0.686628 -2.435844 31.479683 0.000002 0.000001 -0.000003 4.805603 -3.859024 7.410065 21.998260 -22.600317 -13.774020 -0.094635 -44.430439 -29.039540 0.000002 0.000001 -0.000004 -0.312561 -0.635276 10.052579 0.498008 -2.097231 26.713734 0.371471 -1.824363 23.016831 -0.000000 0.000000 -0.000004 -2.825558 -3.306848 59.964054 5.242703 -4.620309 97.230789 2.103726 -3.896024 56.721733 -0.000002 0.000000 0.000005 -3.417123 -3.809664 66.335501 3.390339 -4.481929 74.199111 2.019024 -3.839249 55.466272 -0.000002 -0.000000 -0.000002 -51.478275 9.526429 12.951779 75.864578 4.237561 8.897582 4.314628 -9.337622 -7.211070 2.341740 -0.153206 3.598105 -0.000001 0.000000 -0.000000 -41.447552 -9.587952 2.896358 40.944488 -4.710977 2.298810 13.886686 -4.001407 -15.252238 -2.654672 -0.000002 -0.000002 -0.000000 -0.000002 -0.000001 
9.865995 176.313354 -51.817772 -8.981966 -7.873148 -4.399276 46.599181 2.800359 9.160531 5.756126 0.386301 -1.406257 5.977332 0.179401 -1.383225 1.879047 -2.554313 -2.481260 -27.745582 6.704838 15.525061 0.000001 -0.000000 -0.000001 0.000001 -0.000000 -0.000001 0.000001 -0.000000 -0.000001 -25.638534 -49.963735 -4.928788 -72.542018 -30.565243 -26.922003 0.000002 -31.111092 -0.000014 -127.084781 14.782650 17.225920 4.376975 8.242770 -59.103109 3.442587 5.333943 -65.655337 0.846106 3.034599 -31.152841 -0.000000 -0.000002 0.000003 3.361296 8.062037 6.467300 25.152814 17.773540 -4.370633 -6.565632 -12.687384 5.174784 -0.000002 0.000002 0.000001 2.108884 7.019999 -37.039508 2.026622 4.431453 -49.134660 0.462447 2.283222 -22.896891 -0.000000 0.000001 -0.000001 1.296774 6.713715 -66.135185 3.228626 5.232287 -63.331788 0.765691 2.897587 -29.598758 -0.000001 0.000003 -0.000000 -3.339987 6.607837 -79.497405 2.473668 4.780649 -54.697196 0.283233 1.801238 -17.871229 -0.000002 -0.000002 -0.000002 -29.564115 5.639650 1.074462 -45.368565 36.790636 68.371983 0.000499 101.976452 -0.000533 -35.863810 -24.413488 -34.202131 2.867921 -6.664770 55.375042 6.002106 -4.459191 106.802609 0.988019 -2.870146 37.984191 0.000002 -0.000000 -0.000002 2.834609 -3.044319 5.277375 22.207730 -24.893241 -11.438863 0.106287 -41.694760 -27.370762 -0.000002 -0.000002 -0.000001 -0.062135 -1.919072 8.752611 0.393479 -1.875262 23.698482 0.269325 -1.562338 19.561131 -0.000000 -0.000000 -0.000001 -2.575672 -3.603891 61.279064 5.146665 -4.631433 96.039905 2.333545 -4.037152 60.043107 -0.000001 0.000000 0.000000 -3.122204 -4.054388 67.259605 3.054726 -4.373385 69.854045 1.870354 -3.732798 53.215022 -0.000001 0.000000 -0.000001 -53.055373 10.556051 12.435106 80.534426 -3.233606 8.752073 12.377566 -8.593592 -9.990122 -8.387426 -1.589186 11.182007 -0.000000 0.000000 -0.000000 -42.068621 -13.926352 2.631792 33.432113 -1.293703 3.422935 6.504284 1.492160 -14.199895 -1.057244 0.000003 -0.000003 0.000002 -0.000002 -0.000000 
